<?xml version="1.0" encoding="UTF-8" standalone="no"?>
<!-- Created with Inkscape (http://www.inkscape.org/) -->

<svg
   xmlns:dc="http://purl.org/dc/elements/1.1/"
   xmlns:cc="http://creativecommons.org/ns#"
   xmlns:rdf="http://www.w3.org/1999/02/22-rdf-syntax-ns#"
   xmlns:svg="http://www.w3.org/2000/svg"
   xmlns="http://www.w3.org/2000/svg"
   xmlns:xlink="http://www.w3.org/1999/xlink"
   xmlns:sodipodi="http://sodipodi.sourceforge.net/DTD/sodipodi-0.dtd"
   xmlns:inkscape="http://www.inkscape.org/namespaces/inkscape"
   width="744.09448819"
   height="1052.3622047"
   id="svg2"
   version="1.1"
   inkscape:version="0.48.1 "
   sodipodi:docname="move-icon.svg">
  <defs
     id="defs4">
    <linearGradient
       id="linearGradient3923">
      <stop
         style="stop-color:#6c6c6c;stop-opacity:1;"
         offset="0"
         id="stop3925" />
      <stop
         style="stop-color:#000000;stop-opacity:0.08035714;"
         offset="1"
         id="stop3927" />
    </linearGradient>
    <radialGradient
       inkscape:collect="always"
       xlink:href="#linearGradient3923"
       id="radialGradient3931"
       cx="1111.48"
       cy="611.3374"
       fx="1111.48"
       fy="611.3374"
       r="268.5"
       gradientTransform="matrix(1.6925137,-1.2521906e-8,1.3967755e-8,1.8879408,-654.71384,-714.25818)"
       gradientUnits="userSpaceOnUse" />
    <radialGradient
       inkscape:collect="always"
       xlink:href="#linearGradient3923-8"
       id="radialGradient3931-9"
       cx="1111.48"
       cy="611.3374"
       fx="1111.48"
       fy="611.3374"
       r="268.5"
       gradientTransform="matrix(1.6925137,-1.2521906e-8,1.3967755e-8,1.8879408,-676.78109,-617.58268)"
       gradientUnits="userSpaceOnUse" />
    <linearGradient
       inkscape:collect="always"
       id="linearGradient3923-8">
      <stop
         style="stop-color:#000000;stop-opacity:1;"
         offset="0"
         id="stop3925-1" />
      <stop
         style="stop-color:#000000;stop-opacity:0;"
         offset="1"
         id="stop3927-2" />
    </linearGradient>
    <radialGradient
       inkscape:collect="always"
       xlink:href="#linearGradient3923"
       id="radialGradient3774"
       gradientUnits="userSpaceOnUse"
       gradientTransform="matrix(-1.0000843,0.02017107,-0.01685998,-0.83592045,2554.0286,741.1659)"
       cx="1111.48"
       cy="611.3374"
       fx="1111.48"
       fy="611.3374"
       r="268.5" />
    <radialGradient
       inkscape:collect="always"
       xlink:href="#linearGradient3923-7"
       id="radialGradient3774-1"
       gradientUnits="userSpaceOnUse"
       gradientTransform="matrix(1.6925137,-1.2521906e-8,1.3967755e-8,1.8879408,-654.71384,-714.25818)"
       cx="1111.48"
       cy="611.3374"
       fx="1111.48"
       fy="611.3374"
       r="268.5" />
    <linearGradient
       id="linearGradient3923-7">
      <stop
         style="stop-color:#474747;stop-opacity:1;"
         offset="0"
         id="stop3925-4" />
      <stop
         style="stop-color:#000000;stop-opacity:0;"
         offset="1"
         id="stop3927-0" />
    </linearGradient>
    <clipPath
       clipPathUnits="userSpaceOnUse"
       id="clipPath3830">
      <path
         style="opacity:0.39380529;fill:#ffffff;fill-opacity:1;stroke:none"
         d="m 1432.1478,-15.44384 -92.75,122.21875 41.1562,-0.15625 a 12.95992,12.95992 0 0 1 13.0313,12.96875 l 0,81.4375 a 12.95992,12.95992 0 0 1 -12.9688,12.96875 l -81.4375,0 a 12.95992,12.95992 0 0 1 -12.9688,-13.03125 l 0.1563,-41.15625 -122.2188,92.78125 122.2188,92.75 -0.1563,-41.15625 a 12.95992,12.95992 0 0 1 12.9688,-13.03125 l 81.4375,0 a 12.95992,12.95992 0 0 1 12.9688,12.96875 l 0,81.40625 a 12.95992,12.95992 0 0 1 -13.0313,12.96875 l -41.1562,-0.15625 92.75,122.21875 92.7812,-122.21875 -41.1562,0.15625 a 12.95992,12.95992 0 0 1 -13.0313,-12.96875 l 0,-81.40625 a 12.95992,12.95992 0 0 1 12.9688,-12.96875 l 81.4062,0 a 12.95992,12.95992 0 0 1 12.9688,13.03125 l -0.1563,41.15625 122.2188,-92.75 -122.2188,-92.78125 0.1563,41.15625 a 12.95992,12.95992 0 0 1 -12.9688,13.03125 l -81.4062,0 a 12.95992,12.95992 0 0 1 -12.9688,-12.96875 l 0,-81.4375 a 12.95992,12.95992 0 0 1 13.0313,-12.96875 l 41.1562,0.15625 -92.7812,-122.21875 z"
         id="path3832"
         inkscape:connector-curvature="0"
         clip-path="none" />
    </clipPath>
  </defs>
  <sodipodi:namedview
     id="base"
     pagecolor="#ffffff"
     bordercolor="#666666"
     borderopacity="1.0"
     inkscape:pageopacity="0.0"
     inkscape:pageshadow="2"
     inkscape:zoom="0.32"
     inkscape:cx="1430.9588"
     inkscape:cy="798.23933"
     inkscape:document-units="px"
     inkscape:current-layer="layer1"
     showgrid="false"
     inkscape:window-width="1280"
     inkscape:window-height="962"
     inkscape:window-x="-8"
     inkscape:window-y="-8"
     inkscape:window-maximized="1" />
  <metadata
     id="metadata7">
    <rdf:RDF>
      <cc:Work
         rdf:about="">
        <dc:format>image/svg+xml</dc:format>
        <dc:type
           rdf:resource="http://purl.org/dc/dcmitype/StillImage" />
        <dc:title></dc:title>
      </cc:Work>
    </rdf:RDF>
  </metadata>
  <g
     inkscape:label="Layer 1"
     inkscape:groupmode="layer"
     id="layer1">
    <path
       style="fill:none;stroke:#818181;stroke-width:10;stroke-miterlimit:4;stroke-opacity:1;stroke-dasharray:none"
       d="m 1431.0938,-34.59375 c -13.287,1.135051 -19.2454,15.003413 -26.5626,24.1875 -27.9221,37.031846 -57.2625,73.190075 -83.4374,111.4375 -4.8669,13.31876 9.3706,28.09002 22.875,25.0625 9.5104,0.39583 19.0208,0.79167 28.5312,1.1875 0.01,21.88542 0.021,43.77083 0.031,65.65625 -21.9479,0 -43.8958,0 -65.8437,0 -1.1967,-14.89219 1.7761,-31.07405 -5.0625,-44.84375 -7.9975,-10.60894 -25.3488,-8.71973 -33.1036,1.23664 -40.0287,31.33962 -82.0603,60.26104 -120.7089,93.20086 -7.1486,11.12514 0.6929,25.90719 11.9242,30.69484 40.6235,30.09573 79.7106,62.52684 121.6383,90.68016 13.866,4.11746 27.4171,-10.56142 24.3541,-24.12413 0.382,-9.17738 0.7639,-18.35475 1.1459,-27.53212 21.8854,-0.0104 43.7708,-0.0208 65.6562,-0.0312 -0.01,21.92708 -0.021,43.85417 -0.031,65.78125 -14.867,1.25155 -31.0752,-1.75183 -44.8125,5.0625 -10.5726,8.00737 -8.7587,25.23116 1.1748,33.04062 31.3206,40.09925 60.3816,82.16415 93.2939,120.86563 11.1203,7.04806 25.8918,-0.82284 30.6308,-11.98791 30.0751,-40.62859 62.5289,-79.68963 90.6818,-121.60584 4.3057,-13.74187 -10.7849,-27.63452 -24.1563,-24.375 -9.1667,-0.38542 -18.3333,-0.77083 -27.5,-1.15625 0,-21.875 0,-43.75 0,-65.625 21.9375,0.0104 43.875,0.0208 65.8125,0.0312 1.2956,15.04291 -2.0104,31.55032 5.4375,45.3125 8.2728,10.15326 25.1077,7.93973 32.8219,-1.79981 40.0267,-31.26544 82.0372,-60.27152 120.6468,-93.13769 6.8247,-10.74766 -0.2748,-25.40689 -11.2683,-30.13179 -40.8083,-30.24039 -80.0941,-62.80928 -122.1379,-91.14946 -13.8748,-4.43313 -27.7974,10.53284 -24.5417,24.12413 -0.3819,9.15654 -0.7639,18.31308 -1.1458,27.46962 -21.875,0 -43.75,0 -65.625,0 0,-21.94792 0,-43.89583 0,-65.84375 14.9662,-1.19976 31.3386,1.87105 45.125,-5.25 10.2553,-8.11229 8.3285,-25.013029 -1.3908,-32.761498 -31.0565,-40.028507 -60.3396,-81.5221534 -92.7342,-120.426002 -3.4309,-2.292949 -7.6035,-3.453957 -11.7187,-3.25 z"
       id="path3811"
       inkscape:connector-curvature="0"
       inkscape:export-xdpi="7.4000001"
       inkscape:export-ydpi="7.4000001"
       inkscape:export-filename="C:\source\canvas\website\src\com\project\website\shared\client\resources\images\bitmaps\move-icon_48.png" />
    <path
       sodipodi:type="inkscape:offset"
       inkscape:radius="0"
       inkscape:original="M 294.96875 45.46875 L 294.9375 46.125 L 176.25 202.53125 L 243.65625 202.25 L 243.65625 283.6875 L 162.21875 283.6875 L 162.5 216.28125 L 6.0625 335 L 5.4375 335 L 5.75 335.21875 L 5.4375 335.46875 L 6.09375 335.5 L 162.5 454.1875 L 162.21875 386.78125 L 243.65625 386.78125 L 243.65625 468.1875 L 176.25 467.90625 L 294.9375 624.3125 L 294.96875 624.96875 L 295.21875 624.65625 L 295.4375 624.96875 L 295.4375 624.34375 L 414.15625 467.90625 L 346.75 468.1875 L 346.75 386.78125 L 428.15625 386.78125 L 427.875 454.1875 L 584.28125 335.5 L 584.9375 335.46875 L 584.625 335.21875 L 584.9375 335 L 584.3125 335 L 427.875 216.28125 L 428.15625 283.6875 L 346.75 283.6875 L 346.75 202.25 L 414.15625 202.53125 L 295.4375 46.09375 L 295.4375 45.46875 L 295.21875 45.78125 L 294.96875 45.46875 z "
       style="fill:none;stroke:#000000;stroke-opacity:1"
       id="path3876"
       d="M 294.96875,45.46875 294.9375,46.125 176.25,202.53125 243.65625,202.25 l 0,81.4375 -81.4375,0 L 162.5,216.28125 6.0625,335 l -0.625,0 0.3125,0.21875 -0.3125,0.25 L 6.09375,335.5 162.5,454.1875 l -0.28125,-67.40625 81.4375,0 0,81.40625 -67.40625,-0.28125 118.6875,156.40625 0.0312,0.65625 0.25,-0.3125 0.21875,0.3125 0,-0.625 118.71875,-156.4375 -67.40625,0.28125 0,-81.40625 81.40625,0 L 427.875,454.1875 584.28125,335.5 l 0.65625,-0.0312 -0.3125,-0.25 0.3125,-0.21875 -0.625,0 -156.4375,-118.71875 0.28125,67.40625 -81.40625,0 0,-81.4375 67.40625,0.28125 -118.71875,-156.4375 0,-0.625 -0.21875,0.3125 -0.25,-0.3125 z" />
    <path
       sodipodi:type="inkscape:offset"
       inkscape:radius="-12.958624"
       inkscape:original="M 294.96875 45.46875 L 294.9375 46.125 L 176.25 202.53125 L 243.65625 202.25 L 243.65625 283.6875 L 162.21875 283.6875 L 162.5 216.28125 L 6.0625 335 L 5.4375 335 L 5.75 335.21875 L 5.4375 335.46875 L 6.09375 335.5 L 162.5 454.1875 L 162.21875 386.78125 L 243.65625 386.78125 L 243.65625 468.1875 L 176.25 467.90625 L 294.9375 624.3125 L 294.96875 624.96875 L 295.21875 624.65625 L 295.4375 624.96875 L 295.4375 624.34375 L 414.15625 467.90625 L 346.75 468.1875 L 346.75 386.78125 L 428.15625 386.78125 L 427.875 454.1875 L 584.28125 335.5 L 584.9375 335.46875 L 584.625 335.21875 L 584.9375 335 L 584.3125 335 L 427.875 216.28125 L 428.15625 283.6875 L 346.75 283.6875 L 346.75 202.25 L 414.15625 202.53125 L 295.4375 46.09375 L 295.4375 45.46875 L 295.21875 45.78125 L 294.96875 45.46875 z "
       style="fill:none;stroke:#000000;stroke-opacity:1"
       id="path3897"
       d="m 295.1875,67.21875 -92.75,122.21875 41.15625,-0.15625 A 12.95992,12.95992 0 0 1 256.625,202.25 l 0,81.4375 a 12.95992,12.95992 0 0 1 -12.96875,12.96875 l -81.4375,0 A 12.95992,12.95992 0 0 1 149.25,283.625 L 149.40625,242.46875 27.1875,335.25 149.40625,428 149.25,386.84375 a 12.95992,12.95992 0 0 1 12.96875,-13.03125 l 81.4375,0 a 12.95992,12.95992 0 0 1 12.96875,12.96875 l 0,81.40625 a 12.95992,12.95992 0 0 1 -13.03125,12.96875 L 202.4375,481 295.1875,603.21875 387.96875,481 346.8125,481.15625 A 12.95992,12.95992 0 0 1 333.78125,468.1875 l 0,-81.40625 A 12.95992,12.95992 0 0 1 346.75,373.8125 l 81.40625,0 A 12.95992,12.95992 0 0 1 441.125,386.84375 L 440.96875,428 563.1875,335.25 440.96875,242.46875 441.125,283.625 a 12.95992,12.95992 0 0 1 -12.96875,13.03125 l -81.40625,0 A 12.95992,12.95992 0 0 1 333.78125,283.6875 l 0,-81.4375 A 12.95992,12.95992 0 0 1 346.8125,189.28125 L 387.96875,189.4375 295.1875,67.21875 z"
       transform="translate(60.526786,594.28629)" />
    <path
       sodipodi:type="inkscape:offset"
       inkscape:radius="0"
       inkscape:original="M 1432.1562 -15.4375 L 1339.4062 106.78125 L 1380.5625 106.625 A 12.95992 12.95992 0 0 1 1393.5938 119.59375 L 1393.5938 201.03125 A 12.95992 12.95992 0 0 1 1380.625 214 L 1299.1875 214 A 12.95992 12.95992 0 0 1 1286.2188 200.96875 L 1286.375 159.8125 L 1164.1562 252.59375 L 1286.375 345.34375 L 1286.2188 304.1875 A 12.95992 12.95992 0 0 1 1299.1875 291.15625 L 1380.625 291.15625 A 12.95992 12.95992 0 0 1 1393.5938 304.125 L 1393.5938 385.53125 A 12.95992 12.95992 0 0 1 1380.5625 398.5 L 1339.4062 398.34375 L 1432.1562 520.5625 L 1524.9375 398.34375 L 1483.7812 398.5 A 12.95992 12.95992 0 0 1 1470.75 385.53125 L 1470.75 304.125 A 12.95992 12.95992 0 0 1 1483.7188 291.15625 L 1565.125 291.15625 A 12.95992 12.95992 0 0 1 1578.0938 304.1875 L 1577.9375 345.34375 L 1700.1562 252.59375 L 1577.9375 159.8125 L 1578.0938 200.96875 A 12.95992 12.95992 0 0 1 1565.125 214 L 1483.7188 214 A 12.95992 12.95992 0 0 1 1470.75 201.03125 L 1470.75 119.59375 A 12.95992 12.95992 0 0 1 1483.7812 106.625 L 1524.9375 106.78125 L 1432.1562 -15.4375 z "
       xlink:href="#path3897-6"
       style="fill:url(#radialGradient3931);fill-opacity:1;stroke:#000000;stroke-opacity:1"
       id="path3772"
       inkscape:href="#path3897-6"
       d="m 1512.5938,-15.4375 -92.75,122.21875 L 1461,106.625 a 12.95992,12.95992 0 0 1 13.0312,12.96875 l 0,81.4375 A 12.95992,12.95992 0 0 1 1461.0625,214 l -81.4375,0 a 12.95992,12.95992 0 0 1 -12.9688,-13.03125 l 0.1563,-41.15625 -122.2187,92.78125 122.2187,92.75 -0.1563,-41.15625 a 12.95992,12.95992 0 0 1 12.9688,-13.03125 l 81.4375,0 a 12.95992,12.95992 0 0 1 12.9687,12.96875 l 0,81.40625 A 12.95992,12.95992 0 0 1 1461,398.5 l -41.1562,-0.15625 92.75,122.21875 92.7812,-122.21875 -41.1562,0.15625 a 12.95992,12.95992 0 0 1 -13.0313,-12.96875 l 0,-81.40625 a 12.95992,12.95992 0 0 1 12.9687,-12.96875 l 81.4063,0 a 12.95992,12.95992 0 0 1 12.9687,13.03125 l -0.1562,41.15625 122.2188,-92.75 -122.2188,-92.78125 0.1562,41.15625 A 12.95992,12.95992 0 0 1 1645.5625,214 l -81.4063,0 a 12.95992,12.95992 0 0 1 -12.9687,-12.96875 l 0,-81.4375 a 12.95992,12.95992 0 0 1 13.0313,-12.96875 l 41.1562,0.15625 -92.7812,-122.21875 z"
       inkscape:export-filename="C:\source\canvas\website\src\com\project\website\shared\client\resources\images\bitmaps\move-icon_48.png"
       inkscape:export-xdpi="7.4000001"
       inkscape:export-ydpi="7.4000001" />
    <path
       style="fill:url(#radialGradient3774);fill-opacity:1;stroke:#000000;stroke-opacity:1"
       d="m 1432.1478,-15.443836 -92.75,122.218746 41.1562,-0.15625 a 12.95992,12.95992 0 0 1 13.0313,12.96875 l 0,81.4375 a 12.95992,12.95992 0 0 1 -12.9688,12.96875 l -81.4373,0 a 12.95992,12.95992 0 0 1 -12.9691,-13.03125 l 0.1566,-41.15625 -122.219,92.78125 122.219,92.75 -0.1566,-41.15625 a 12.95992,12.95992 0 0 1 12.9691,-13.03125 l 81.4373,0 a 12.95992,12.95992 0 0 1 12.9688,12.96875 l 0,81.40625 a 12.95992,12.95992 0 0 1 -13.0313,12.96875 l -41.1562,-0.15625 92.75,122.21875 92.7812,-122.21875 -41.1562,0.15625 a 12.95992,12.95992 0 0 1 -13.0313,-12.96875 l 0,-81.40625 a 12.95992,12.95992 0 0 1 12.9688,-12.96875 l 81.4062,0 a 12.95992,12.95992 0 0 1 12.9688,13.03125 l -0.1563,41.15625 122.2188,-92.75 -122.2188,-92.78125 0.1563,41.15625 a 12.95992,12.95992 0 0 1 -12.9688,13.03125 l -81.4062,0 a 12.95992,12.95992 0 0 1 -12.9688,-12.96875 l 0,-81.4375 a 12.95992,12.95992 0 0 1 13.0313,-12.96875 l 41.1562,0.15625 -92.7812,-122.218746 z"
       id="path3897-6"
       inkscape:connector-curvature="0"
       inkscape:export-filename="C:\source\canvas\website\src\com\project\website\shared\client\resources\images\bitmaps\move-icon_48.png"
       inkscape:export-xdpi="7.4000001"
       inkscape:export-ydpi="7.4000001" />
    <path
       inkscape:connector-curvature="0"
       id="path3979"
       d="m 1026.315,-105.27263 -12.1218,398.00011 816.2032,-153.54319 -143.4416,-371.73614 z"
       style="fill:#ffffff;stroke:none;stroke-width:1px;stroke-linecap:butt;stroke-linejoin:miter;stroke-opacity:1;fill-opacity:1;opacity:0.42575216"
       clip-path="url(#clipPath3830)"
       inkscape:export-filename="C:\source\canvas\website\src\com\project\website\shared\client\resources\images\bitmaps\move-icon_48.png"
       inkscape:export-xdpi="7.4000001"
       inkscape:export-ydpi="7.4000001" />
  </g>
</svg>
