<?xml version="1.0" encoding="UTF-8" standalone="no"?>
<!-- Created with Inkscape (http://www.inkscape.org/) -->

<svg
   xmlns:dc="http://purl.org/dc/elements/1.1/"
   xmlns:cc="http://creativecommons.org/ns#"
   xmlns:rdf="http://www.w3.org/1999/02/22-rdf-syntax-ns#"
   xmlns:svg="http://www.w3.org/2000/svg"
   xmlns="http://www.w3.org/2000/svg"
   xmlns:xlink="http://www.w3.org/1999/xlink"
   xmlns:sodipodi="http://sodipodi.sourceforge.net/DTD/sodipodi-0.dtd"
   xmlns:inkscape="http://www.inkscape.org/namespaces/inkscape"
   width="744.09448819"
   height="1052.3622047"
   id="svg2"
   version="1.1"
   inkscape:version="0.48.1 "
   sodipodi:docname="move-icon.svg">
  <defs
     id="defs4">
    <linearGradient
       id="linearGradient3923">
      <stop
         style="stop-color:#474747;stop-opacity:1;"
         offset="0"
         id="stop3925" />
      <stop
         style="stop-color:#000000;stop-opacity:0;"
         offset="1"
         id="stop3927" />
    </linearGradient>
    <radialGradient
       inkscape:collect="always"
       xlink:href="#linearGradient3923"
       id="radialGradient3931"
       cx="1111.48"
       cy="611.3374"
       fx="1111.48"
       fy="611.3374"
       r="268.5"
       gradientTransform="matrix(1.6925137,-1.2521906e-8,1.3967755e-8,1.8879408,-654.71384,-714.25818)"
       gradientUnits="userSpaceOnUse" />
    <radialGradient
       inkscape:collect="always"
       xlink:href="#linearGradient3923-8"
       id="radialGradient3931-9"
       cx="1111.48"
       cy="611.3374"
       fx="1111.48"
       fy="611.3374"
       r="268.5"
       gradientTransform="matrix(1.6925137,-1.2521906e-8,1.3967755e-8,1.8879408,-676.78109,-617.58268)"
       gradientUnits="userSpaceOnUse" />
    <linearGradient
       inkscape:collect="always"
       id="linearGradient3923-8">
      <stop
         style="stop-color:#000000;stop-opacity:1;"
         offset="0"
         id="stop3925-1" />
      <stop
         style="stop-color:#000000;stop-opacity:0;"
         offset="1"
         id="stop3927-2" />
    </linearGradient>
    <clipPath
       clipPathUnits="userSpaceOnUse"
       id="clipPath3977">
      <path
         style="fill:none;stroke:#000000;stroke-width:1px;stroke-linecap:butt;stroke-linejoin:miter;stroke-opacity:1"
         d="M 836.40631,92.717265 824.28448,490.71737 1640.4877,337.17418 1497.0461,-34.561956 z"
         id="path3979"
         inkscape:connector-curvature="0" />
    </clipPath>
  </defs>
  <sodipodi:namedview
     id="base"
     pagecolor="#ffffff"
     bordercolor="#666666"
     borderopacity="1.0"
     inkscape:pageopacity="0.0"
     inkscape:pageshadow="2"
     inkscape:zoom="0.49497475"
     inkscape:cx="1224.9837"
     inkscape:cy="720.46449"
     inkscape:document-units="px"
     inkscape:current-layer="layer1"
     showgrid="false"
     inkscape:window-width="1280"
     inkscape:window-height="962"
     inkscape:window-x="-8"
     inkscape:window-y="-8"
     inkscape:window-maximized="1" />
  <metadata
     id="metadata7">
    <rdf:RDF>
      <cc:Work
         rdf:about="">
        <dc:format>image/svg+xml</dc:format>
        <dc:type
           rdf:resource="http://purl.org/dc/dcmitype/StillImage" />
        <dc:title></dc:title>
      </cc:Work>
    </rdf:RDF>
  </metadata>
  <g
     inkscape:label="Layer 1"
     inkscape:groupmode="layer"
     id="layer1">
    <path
       sodipodi:type="inkscape:offset"
       inkscape:radius="0"
       inkscape:original="M 294.96875 45.46875 L 294.9375 46.125 L 176.25 202.53125 L 243.65625 202.25 L 243.65625 283.6875 L 162.21875 283.6875 L 162.5 216.28125 L 6.0625 335 L 5.4375 335 L 5.75 335.21875 L 5.4375 335.46875 L 6.09375 335.5 L 162.5 454.1875 L 162.21875 386.78125 L 243.65625 386.78125 L 243.65625 468.1875 L 176.25 467.90625 L 294.9375 624.3125 L 294.96875 624.96875 L 295.21875 624.65625 L 295.4375 624.96875 L 295.4375 624.34375 L 414.15625 467.90625 L 346.75 468.1875 L 346.75 386.78125 L 428.15625 386.78125 L 427.875 454.1875 L 584.28125 335.5 L 584.9375 335.46875 L 584.625 335.21875 L 584.9375 335 L 584.3125 335 L 427.875 216.28125 L 428.15625 283.6875 L 346.75 283.6875 L 346.75 202.25 L 414.15625 202.53125 L 295.4375 46.09375 L 295.4375 45.46875 L 295.21875 45.78125 L 294.96875 45.46875 z "
       style="fill:none;stroke:#000000;stroke-opacity:1"
       id="path3876"
       d="M 294.96875,45.46875 294.9375,46.125 176.25,202.53125 243.65625,202.25 l 0,81.4375 -81.4375,0 L 162.5,216.28125 6.0625,335 l -0.625,0 0.3125,0.21875 -0.3125,0.25 L 6.09375,335.5 162.5,454.1875 l -0.28125,-67.40625 81.4375,0 0,81.40625 -67.40625,-0.28125 118.6875,156.40625 0.0312,0.65625 0.25,-0.3125 0.21875,0.3125 0,-0.625 118.71875,-156.4375 -67.40625,0.28125 0,-81.40625 81.40625,0 L 427.875,454.1875 584.28125,335.5 l 0.65625,-0.0312 -0.3125,-0.25 0.3125,-0.21875 -0.625,0 -156.4375,-118.71875 0.28125,67.40625 -81.40625,0 0,-81.4375 67.40625,0.28125 -118.71875,-156.4375 0,-0.625 -0.21875,0.3125 -0.25,-0.3125 z" />
    <path
       sodipodi:type="inkscape:offset"
       inkscape:radius="-12.958624"
       inkscape:original="M 294.96875 45.46875 L 294.9375 46.125 L 176.25 202.53125 L 243.65625 202.25 L 243.65625 283.6875 L 162.21875 283.6875 L 162.5 216.28125 L 6.0625 335 L 5.4375 335 L 5.75 335.21875 L 5.4375 335.46875 L 6.09375 335.5 L 162.5 454.1875 L 162.21875 386.78125 L 243.65625 386.78125 L 243.65625 468.1875 L 176.25 467.90625 L 294.9375 624.3125 L 294.96875 624.96875 L 295.21875 624.65625 L 295.4375 624.96875 L 295.4375 624.34375 L 414.15625 467.90625 L 346.75 468.1875 L 346.75 386.78125 L 428.15625 386.78125 L 427.875 454.1875 L 584.28125 335.5 L 584.9375 335.46875 L 584.625 335.21875 L 584.9375 335 L 584.3125 335 L 427.875 216.28125 L 428.15625 283.6875 L 346.75 283.6875 L 346.75 202.25 L 414.15625 202.53125 L 295.4375 46.09375 L 295.4375 45.46875 L 295.21875 45.78125 L 294.96875 45.46875 z "
       style="fill:none;stroke:#000000;stroke-opacity:1"
       id="path3897"
       d="m 295.1875,67.21875 -92.75,122.21875 41.15625,-0.15625 A 12.95992,12.95992 0 0 1 256.625,202.25 l 0,81.4375 a 12.95992,12.95992 0 0 1 -12.96875,12.96875 l -81.4375,0 A 12.95992,12.95992 0 0 1 149.25,283.625 L 149.40625,242.46875 27.1875,335.25 149.40625,428 149.25,386.84375 a 12.95992,12.95992 0 0 1 12.96875,-13.03125 l 81.4375,0 a 12.95992,12.95992 0 0 1 12.96875,12.96875 l 0,81.40625 a 12.95992,12.95992 0 0 1 -13.03125,12.96875 L 202.4375,481 295.1875,603.21875 387.96875,481 346.8125,481.15625 A 12.95992,12.95992 0 0 1 333.78125,468.1875 l 0,-81.40625 A 12.95992,12.95992 0 0 1 346.75,373.8125 l 81.40625,0 A 12.95992,12.95992 0 0 1 441.125,386.84375 L 440.96875,428 563.1875,335.25 440.96875,242.46875 441.125,283.625 a 12.95992,12.95992 0 0 1 -12.96875,13.03125 l -81.40625,0 A 12.95992,12.95992 0 0 1 333.78125,283.6875 l 0,-81.4375 A 12.95992,12.95992 0 0 1 346.8125,189.28125 L 387.96875,189.4375 295.1875,67.21875 z"
       transform="translate(60.526786,594.28629)" />
    <path
       style="fill:url(#radialGradient3931);fill-opacity:1;stroke:#000000;stroke-opacity:1"
       d="m 1226.4813,171.91059 -92.75,122.21875 41.1562,-0.15625 a 12.95992,12.95992 0 0 1 13.0313,12.96875 l 0,81.4375 a 12.95992,12.95992 0 0 1 -12.9688,12.96875 l -81.4374,0 a 12.95992,12.95992 0 0 1 -12.9689,-13.03125 l 0.1564,-41.15625 -122.21884,92.78125 122.21884,92.75 -0.1564,-41.15625 a 12.95992,12.95992 0 0 1 12.9689,-13.03125 l 81.4374,0 a 12.95992,12.95992 0 0 1 12.9688,12.96875 l 0,81.40625 a 12.95992,12.95992 0 0 1 -13.0313,12.96875 l -41.1562,-0.15625 92.75,122.21875 92.7812,-122.21875 -41.1562,0.15625 a 12.95992,12.95992 0 0 1 -13.0313,-12.96875 l 0,-81.40625 a 12.95992,12.95992 0 0 1 12.9688,-12.96875 l 81.4062,0 a 12.95992,12.95992 0 0 1 12.9688,13.03125 l -0.1563,41.15625 122.2188,-92.75 -122.2188,-92.78125 0.1563,41.15625 a 12.95992,12.95992 0 0 1 -12.9688,13.03125 l -81.4062,0 a 12.95992,12.95992 0 0 1 -12.9688,-12.96875 l 0,-81.4375 a 12.95992,12.95992 0 0 1 13.0313,-12.96875 l 41.1562,0.15625 -92.7812,-122.21875 z"
       id="path3897-6"
       inkscape:connector-curvature="0" />
    <path
       style="fill:#ffffff;fill-opacity:1;stroke:none;stroke-opacity:1;opacity:0.17256637"
       d="m 1226.4812,171.91059 -92.75,122.21876 41.1562,-0.15625 a 12.95992,12.95992 0 0 1 13.0313,12.96875 l 0,81.4375 a 12.95992,12.95992 0 0 1 -12.9688,12.96875 l -81.4374,0 a 12.95992,12.95992 0 0 1 -12.9688,-13.03125 l 0.1563,-41.15625 -122.21872,92.78125 122.21872,92.75 -0.1563,-41.15625 a 12.95992,12.95992 0 0 1 12.9688,-13.03125 l 81.4374,0 a 12.95992,12.95992 0 0 1 12.9688,12.96875 l 0,81.40625 a 12.95992,12.95992 0 0 1 -13.0313,12.96875 l -41.1562,-0.15625 92.75,122.21875 92.7812,-122.21875 -41.1562,0.15625 a 12.95992,12.95992 0 0 1 -13.0313,-12.96875 l 0,-81.40625 a 12.95992,12.95992 0 0 1 12.9688,-12.96875 l 81.4062,0 a 12.95992,12.95992 0 0 1 12.9688,13.03125 l -0.1563,41.15625 122.2188,-92.75 -122.2188,-92.78125 0.1563,41.15625 a 12.95992,12.95992 0 0 1 -12.9688,13.03125 l -81.4062,0 a 12.95992,12.95992 0 0 1 -12.9688,-12.96875 l 0,-81.4375 a 12.95992,12.95992 0 0 1 13.0313,-12.96875 l 41.1562,0.15625 -92.7812,-122.21876 z"
       id="path3897-6-9"
       inkscape:connector-curvature="0"
       clip-path="url(#clipPath3977)" />
  </g>
</svg>
